<svg xmlns="http://www.w3.org/2000/svg" width="192" height="192" viewBox="0 0 192 192">
  <defs>
    <linearGradient id="bg" x1="0%" y1="0%" x2="100%" y2="100%">
      <stop offset="0%" stop-color="#34d399"/>
      <stop offset="100%" stop-color="#059669"/>
    </linearGradient>
    <linearGradient id="bubble" x1="0%" y1="0%" x2="100%" y2="100%">
      <stop offset="0%" stop-color="#4ade80"/>
      <stop offset="100%" stop-color="#16a34a"/>
    </linearGradient>
  </defs>
  <rect width="192" height="192" rx="42" fill="url(#bg)"/>
  <!-- Chat bubble -->
  <path d="M30 84c0-28 22.7-50.7 50.7-50.7h3c28 0 50.7 22.7 50.7 50.7v3c0 21.8-13.9 40.4-33.3 47.3L82 143l-20-11.2C42 125 30 110 30 93v-9Z" fill="white" opacity="0.3"/>
  <path d="M42 140l13-16c-13.3-8-22.7-22.7-22.7-40" stroke="white" stroke-width="8" stroke-linecap="round" fill="none" opacity="0.3"/>
  <!-- Shopping bag -->
  <rect x="78" y="62" width="80" height="92" rx="12" fill="white"/>
  <!-- Bag handle -->
  <path d="M100 62v-12a18 18 0 0 1 36 0v12" stroke="#059669" stroke-width="7" stroke-linecap="round" fill="none"/>
  <circle cx="100" cy="62" r="5" fill="#059669" opacity="0.8"/>
  <circle cx="136" cy="62" r="5" fill="#059669" opacity="0.8"/>
  <!-- Product grid -->
  <rect x="93" y="92" width="22" height="22" rx="4" fill="#059669" opacity="0.25"/>
  <rect x="121" y="92" width="22" height="22" rx="4" fill="#059669" opacity="0.25"/>
  <rect x="93" y="120" width="22" height="22" rx="4" fill="#059669" opacity="0.25"/>
  <rect x="121" y="120" width="22" height="22" rx="4" fill="#059669" opacity="0.15"/>
</svg>
