<svg xmlns="http://www.w3.org/2000/svg" width="32" height="32" viewBox="0 0 64 64">
  <defs>
    <linearGradient id="bg" x1="0%" y1="0%" x2="100%" y2="100%">
      <stop offset="0%" stop-color="#34d399"/>
      <stop offset="100%" stop-color="#059669"/>
    </linearGradient>
  </defs>
  <!-- Chat bubble -->
  <path d="M4 26c0-13 10.5-23.5 23.5-23.5h1.5c13 0 23.5 10.5 23.5 23.5v1.5c0 10-6.5 18.7-15.5 21.8L30 54l-9.2-5.2C11.5 44.5 4 37 4 30v-4Z" fill="url(#bg)" opacity="0.75"/>
  <path d="M9 49l6-7.5c-6-3.7-10-10-10-17.5" stroke="url(#bg)" stroke-width="3" stroke-linecap="round" fill="none" opacity="0.75"/>
  <!-- Shopping bag -->
  <rect x="26" y="18" width="32" height="37" rx="5" fill="url(#bg)"/>
  <!-- Bag handle -->
  <path d="M34 18v-5a8 8 0 0 1 16 0v5" stroke="white" stroke-width="2.5" stroke-linecap="round" fill="none"/>
  <circle cx="34" cy="18" r="1.8" fill="white" opacity="0.9"/>
  <circle cx="50" cy="18" r="1.8" fill="white" opacity="0.9"/>
  <!-- Product grid -->
  <rect x="32" y="29" width="8" height="8" rx="1.5" fill="white" opacity="0.45"/>
  <rect x="43" y="29" width="8" height="8" rx="1.5" fill="white" opacity="0.45"/>
  <rect x="32" y="40" width="8" height="8" rx="1.5" fill="white" opacity="0.45"/>
  <rect x="43" y="40" width="8" height="8" rx="1.5" fill="white" opacity="0.3"/>
</svg>
